<svg width="21" height="20" viewBox="0 0 21 20" fill="none" xmlns="http://www.w3.org/2000/svg">
<path d="M9.62338 19.0563C9.85913 19.4647 10.4485 19.4647 10.6843 19.0563L12.6635 15.6282C12.8993 15.2198 12.6046 14.7094 12.1331 14.7094H8.17456C7.70306 14.7094 7.40837 15.2198 7.64412 15.6282L9.62338 19.0563Z" fill="#7942FB"/>
<path d="M9.62338 1.29375C9.85913 0.885416 10.4485 0.885417 10.6843 1.29375L12.6635 4.72192C12.8993 5.13026 12.6046 5.64067 12.1331 5.64067H8.17456C7.70306 5.64067 7.40837 5.13026 7.64412 4.72192L9.62338 1.29375Z" fill="#7942FB"/>
<path d="M19.1813 10.8517C19.5896 10.6159 19.5896 10.0265 19.1813 9.79078L15.7531 7.81152C15.3448 7.57577 14.8344 7.87046 14.8344 8.34196L14.8344 12.3005C14.8344 12.772 15.3448 13.0667 15.7531 12.8309L19.1813 10.8517Z" fill="#7942FB"/>
<path d="M1.41887 10.8517C1.01054 10.6159 1.01054 10.0265 1.41887 9.79078L4.84704 7.81152C5.25538 7.57577 5.76579 7.87046 5.76579 8.34196L5.76579 12.3005C5.76579 12.772 5.25538 13.0667 4.84704 12.8309L1.41887 10.8517Z" fill="#7942FB"/>
<circle cx="10.3002" cy="10.175" r="2.7791" fill="#ED5B75"/>
</svg>
